<?xml version="1.0" encoding="utf-8"?>

<!DOCTYPE svg PUBLIC "-//W3C//DTD SVG 1.1//EN" "http://www.w3.org/Graphics/SVG/1.1/DTD/svg11.dtd">
<svg version="1.1" id="Layer_1" xmlns="http://www.w3.org/2000/svg" xmlns:xlink="http://www.w3.org/1999/xlink" x="0px" y="0px"
	 width="20px" height="20px" viewBox="0 0 20 20" enable-background="new 0 0 20 20" xml:space="preserve">
<path d="M19,19H1c-0.6,0-1-0.4-1-1v-5h2v4h16v-4h2v5C20,18.6,19.6,19,19,19z" style="fill:#f9fbff;"/>
<path d="M15.7,7.3c-0.4-0.4-1-0.4-1.4,0L11,10.6V2c0-0.6-0.4-1-1-1S9,1.4,9,2v8.6L5.7,7.3c-0.4-0.4-1-0.4-1.4,0s-0.4,1,0,1.4l5,5
	c0.4,0.4,1,0.4,1.4,0l5-5C16.1,8.3,16.1,7.7,15.7,7.3z" style="fill:#f9fbff;"/>
</svg>
