<?xml version="1.0" encoding="utf-8"?>

<!DOCTYPE svg PUBLIC "-//W3C//DTD SVG 1.1//EN" "http://www.w3.org/Graphics/SVG/1.1/DTD/svg11.dtd">
<svg version="1.1" id="Layer_1" xmlns="http://www.w3.org/2000/svg" xmlns:xlink="http://www.w3.org/1999/xlink" x="0px" y="0px"
	 width="20px" height="20px" viewBox="0 0 20 20" enable-background="new 0 0 20 20" xml:space="preserve" style="fill:#f9fbff;" >
<path d="M8,9H1C0.4,9,0,8.6,0,8V1c0-0.6,0.4-1,1-1h7c0.6,0,1,0.4,1,1v7C9,8.6,8.6,9,8,9z M2,7h5V2H2V7z" style="fill:#f9fbff;"/>
<path d="M19,0h-7c-0.6,0-1,0.4-1,1v7c0,0.6,0.4,1,1,1h7c0.6,0,1-0.4,1-1V1C20,0.4,19.6,0,19,0z" style="fill:#f9fbff;"/>
<path d="M8,11H1c-0.6,0-1,0.4-1,1v7c0,0.6,0.4,1,1,1h7c0.6,0,1-0.4,1-1v-7C9,11.4,8.6,11,8,11z" style="fill:#f9fbff;"/>
<path d="M19,20h-7c-0.6,0-1-0.4-1-1v-7c0-0.6,0.4-1,1-1h7c0.6,0,1,0.4,1,1v7C20,19.6,19.6,20,19,20z M13,18h5v-5h-5V18z" style="fill:#f9fbff;"/>
</svg>
