<?xml version="1.0" encoding="utf-8"?>

<!DOCTYPE svg PUBLIC "-//W3C//DTD SVG 1.1//EN" "http://www.w3.org/Graphics/SVG/1.1/DTD/svg11.dtd">
<svg version="1.1" id="Layer_1" xmlns="http://www.w3.org/2000/svg" xmlns:xlink="http://www.w3.org/1999/xlink" x="0px" y="0px"
	 width="20px" height="20px" viewBox="0 0 20 20" enable-background="new 0 0 20 20" xml:space="preserve">
<path d="M11,20H9c-0.4,0-0.8-0.3-0.9-0.7l-0.9-2.6L4.8,18c-0.4,0.2-0.8,0.1-1.2-0.2l-1.4-1.4c-0.3-0.3-0.4-0.8-0.2-1.2l1.2-2.4
	l-2.6-0.9C0.3,11.8,0,11.4,0,11V9c0-0.4,0.3-0.8,0.7-0.9l2.6-0.9L2,4.8C1.8,4.4,1.9,3.9,2.2,3.6l1.4-1.4C3.9,1.9,4.4,1.8,4.8,2
	l2.4,1.2l0.9-2.6C8.2,0.3,8.6,0,9,0h2c0.4,0,0.8,0.3,0.9,0.7l0.9,2.6L15.2,2c0.4-0.2,0.9-0.1,1.2,0.2l1.4,1.4
	c0.3,0.3,0.4,0.8,0.2,1.2l-1.2,2.4l2.6,0.9C19.7,8.2,20,8.6,20,9v2c0,0.4-0.3,0.8-0.7,0.9l-2.6,0.9l1.2,2.4c0.2,0.4,0.1,0.9-0.2,1.2
	l-1.4,1.4c-0.3,0.3-0.8,0.4-1.2,0.2l-2.4-1.2l-0.9,2.6C11.8,19.7,11.4,20,11,20z M9.7,18h0.6l0.9-2.7c0.2-0.6,1.2-1,1.7-0.7l2.6,1.3
	l0.4-0.4l-1.3-2.6c-0.3-0.6,0.1-1.5,0.7-1.7l2.7-0.9V9.7l-2.7-0.9c-0.6-0.2-1-1.2-0.7-1.7l1.3-2.6l-0.4-0.4l-2.6,1.3
	c-0.6,0.3-1.5-0.1-1.7-0.7L10.3,2H9.7L8.8,4.7c-0.2,0.6-1.2,1-1.7,0.7L4.5,4.1L4.1,4.5l1.3,2.6c0.3,0.6-0.1,1.5-0.7,1.7L2,9.7v0.6
	l2.7,0.9c0.6,0.2,1,1.2,0.7,1.7l-1.3,2.6l0.4,0.4l2.6-1.3c0.6-0.3,1.5,0.1,1.7,0.7L9.7,18z" style="fill:#f9fbff;"/>
<circle cx="10" cy="10" r="2"/>
</svg>
