<?xml version="1.0" encoding="utf-8"?>

<!DOCTYPE svg PUBLIC "-//W3C//DTD SVG 1.1//EN" "http://www.w3.org/Graphics/SVG/1.1/DTD/svg11.dtd">
<svg version="1.1" id="Layer_1" xmlns="http://www.w3.org/2000/svg" xmlns:xlink="http://www.w3.org/1999/xlink" x="0px" y="0px"
	 width="20px" height="20px" viewBox="0 0 20 20" enable-background="new 0 0 20 20" xml:space="preserve">
<path d="M3,6H1C0.4,6,0,5.6,0,5s0.4-1,1-1h2V6z" style="fill:#f9fbff;"/>
<path d="M19,6h-8V4h8c0.6,0,1,0.4,1,1S19.6,6,19,6z" style="fill:#f9fbff;"/>
<path d="M8,1H6C5.4,1,5,1.4,5,2v6c0,0.6,0.4,1,1,1h2c0.6,0,1-0.4,1-1V2C9,1.4,8.6,1,8,1z" style="fill:#f9fbff;"/>
<path d="M14,11h-2c-0.6,0-1,0.4-1,1v6c0,0.6,0.4,1,1,1h2c0.6,0,1-0.4,1-1v-6C15,11.4,14.6,11,14,11z" style="fill:#f9fbff;"/>
<path d="M19,16h-2v-2h2c0.6,0,1,0.4,1,1S19.6,16,19,16z" style="fill:#f9fbff;"/>
<path d="M9,16H1c-0.6,0-1-0.4-1-1s0.4-1,1-1h8V16z" style="fill:#f9fbff;"/>
</svg>
